# xmcd
#
# Track frame offsets:
#	150
#	17925
#	33337
#	55962
#	71350
#	86887
#	107162
#	126712
#	148162
#	167537
#	187762
#	207775
#	223087
#	331275
#
# Disc length: 4423 seconds
#
# Revision: 1
# Processed by: cddbd v1.4PL0 Copyright (c) Steve Scherf et al.
# Submitted via: CDmax 1.9
#
DISCID=d211450e
DTITLE=SHeDAISY - Knock on the Sky
DYEAR=2002
DGENRE=Country
TTITLE0=Mine All Mine
TTITLE1=I'm Lit
TTITLE2=Man Goin' Down
TTITLE3=Get Over Yourself
TTITLE4=Rush
TTITLE5=I Wish I Were The Rain
TTITLE6=Repent
TTITLE7=Everybody Wants You
TTITLE8=Now
TTITLE9=All Over You
TTITLE10=First To Let Go
TTITLE11=Turn Me On
TTITLE12=Keep Me
TTITLE13=Knock on the Sky (hidden track let play 18 minutes)
EXTD=
EXTT0=
EXTT1=
EXTT2=
EXTT3=
EXTT4=
EXTT5=
EXTT6=
EXTT7=
EXTT8=
EXTT9=
EXTT10=
EXTT11=
EXTT12=
EXTT13=
PLAYORDER=
